<svg id="Ebene_1" data-name="Ebene 1" xmlns="http://www.w3.org/2000/svg" viewBox="0 0 307.22 51.51"><path d="M11.48,38.55C5.23,30.56,2,24.11,1.92,19.9a15.84,15.84,0,0,1,3.72-11,.92.92,0,0,0,.23-.69,1,1,0,0,0-.32-.66,1,1,0,0,0-.7-.23.92.92,0,0,0-.65.33A17.38,17.38,0,0,0,0,19.9c.11,4.66,3.35,11.33,10,19.83a1,1,0,0,0,1.35.16A1,1,0,0,0,11.48,38.55Z" style="fill:#581316"/><path d="M36.15,29.85a.91.91,0,0,0-.46-.57,1,1,0,0,0-1.3.38c-3,5.41-7.85,11.64-14.48,18.5-1.15-1.18-3.35-3.49-6.41-7.27A1,1,0,0,0,12,42.09a104.27,104.27,0,0,0,7.22,8.12l.68.68.7-.7c1-1,10.37-10.34,15.46-19.61A1,1,0,0,0,36.15,29.85Z" style="fill:#e38497"/><path d="M19.91,0C14.26,0,10,1.68,6.38,5.28a1,1,0,0,0,0,1.35,1,1,0,0,0,.67.28h0a1,1,0,0,0,.68-.28c3.2-3.22,7.06-4.72,12.17-4.72a18,18,0,0,1,18,18,15.35,15.35,0,0,1-2,7,1,1,0,0,0,0,.73.91.91,0,0,0,.48.56,1,1,0,0,0,.42.1.94.94,0,0,0,.86-.53,17.77,17.77,0,0,0,2.24-7.89A19.93,19.93,0,0,0,19.91,0Z" style="fill:#dc913e"/><path d="M19.84,5.05a14.7,14.7,0,0,0-14.7,14.7c0,4.6,4.89,12.37,11.19,19.6a7.4,7.4,0,0,1,1.68-.5,6.21,6.21,0,0,0,.07-.68,4.88,4.88,0,0,1-3.33-4.55,5,5,0,0,1,5.1-4.88A5,5,0,0,1,25,33.62a4.88,4.88,0,0,1-3.33,4.55c0,.25.05.48.08.68a7.28,7.28,0,0,1,1.61.49c7-8.31,11.23-14.87,11.23-19.59A14.7,14.7,0,0,0,19.84,5.05Zm.07,21.26A7.73,7.73,0,0,1,13,22.08l-.11-.19h0a7.7,7.7,0,0,1-.75-3.32,8.49,8.49,0,0,1,.09-1.14,11.38,11.38,0,0,0,1.31.08,12.12,12.12,0,0,0,4.11-.73,17.71,17.71,0,0,1-4,2.28c5.56-.51,8.94-3.14,10.46-7l0,0a12.06,12.06,0,0,0,3.25,4.64,7.7,7.7,0,0,1-7.52,9.57ZM292.72,7.93v2.71h5.67V27.22h3.15V10.64h5.68V7.93ZM83.66,38.67a2.67,2.67,0,0,0-2.16,1,3.93,3.93,0,0,0-.8,2.59,3.53,3.53,0,0,0,.86,2.52,3.1,3.1,0,0,0,2.36.91,5.57,5.57,0,0,0,1.16-.1,5.82,5.82,0,0,0,1-.33v-.91a5.49,5.49,0,0,1-2.15.45,2.07,2.07,0,0,1-1.6-.61,2.66,2.66,0,0,1-.6-1.8H86.4V41.7a3.17,3.17,0,0,0-.74-2.19A2.53,2.53,0,0,0,83.66,38.67Zm-1.88,2.85a2.49,2.49,0,0,1,.57-1.47,1.66,1.66,0,0,1,1.29-.52,1.5,1.5,0,0,1,1.23.51,2.22,2.22,0,0,1,.43,1.48Zm28.49,3.29a1,1,0,0,1-.79-.33,1.35,1.35,0,0,1-.29-.93v-4h2v-.8h-2V37.24h-.59l-.43,1.43-1,.43v.49h1v4c0,1.37.66,2.06,2,2.06a4.4,4.4,0,0,0,.58,0,2.39,2.39,0,0,0,.49-.13v-.78l-.4.08A3,3,0,0,1,110.27,44.81Zm-5.35.72h1V36h-1ZM287.18,15.82h-8.89V7.93h-3.16V27.22h3.16v-8.7h8.89v8.7h3.16V7.93h-3.16ZM94.37,43.75a5.43,5.43,0,0,0-.13.69h0a14.13,14.13,0,0,0-.47-1.78l-1.21-3.87h-1.1l-1.24,3.87c-.07.22-.16.51-.26.88s-.17.67-.22.91h0c0-.31-.17-.91-.39-1.79s-.56-2.17-1-3.87H87.19L89,45.53h1.18l1.27-3.94c.13-.39.27-.94.43-1.66h0c.21.86.36,1.41.44,1.65l1.23,4h1.21l1.86-6.74h-1C94.87,41.79,94.44,43.45,94.37,43.75Zm6.08-5.07a4.87,4.87,0,0,0-1.19.16,4.74,4.74,0,0,0-1.09.42l.32.78a4.44,4.44,0,0,1,1.9-.51,1.41,1.41,0,0,1,1.09.37,1.72,1.72,0,0,1,.34,1.17v.42l-1.14,0c-2.18.06-3.26.78-3.26,2.14A1.9,1.9,0,0,0,98,45.14a2.25,2.25,0,0,0,1.57.51,3.11,3.11,0,0,0,1.25-.22,2.93,2.93,0,0,0,1-.86h0l.2,1h.76v-4.6a2.25,2.25,0,0,0-.58-1.71A2.57,2.57,0,0,0,100.45,38.68Zm1.35,4.15a1.92,1.92,0,0,1-.55,1.46,2,2,0,0,1-1.49.52,1.41,1.41,0,0,1-.94-.29,1,1,0,0,1-.33-.84,1.15,1.15,0,0,1,.53-1,3.68,3.68,0,0,1,1.76-.38l1,0ZM128,45.53h1V36h-1Zm5.76-6.86a2.68,2.68,0,0,0-2.16,1,3.93,3.93,0,0,0-.8,2.59,3.49,3.49,0,0,0,.87,2.52,3.07,3.07,0,0,0,2.35.91,5.67,5.67,0,0,0,1.17-.1,6,6,0,0,0,1-.33v-.91a5.49,5.49,0,0,1-2.15.45,2.07,2.07,0,0,1-1.6-.61,2.66,2.66,0,0,1-.6-1.8h4.64V41.7a3.17,3.17,0,0,0-.74-2.19A2.53,2.53,0,0,0,133.77,38.67Zm-1.88,2.85a2.49,2.49,0,0,1,.57-1.47,1.68,1.68,0,0,1,1.3-.52A1.49,1.49,0,0,1,135,40a2.22,2.22,0,0,1,.43,1.48ZM108.5,15.82H99.61V7.93H96.45V27.22h3.16v-8.7h8.89v8.7h3.16V7.93H108.5ZM281.69,38.67a2.66,2.66,0,0,0-2.15,1,3.93,3.93,0,0,0-.8,2.59,3.53,3.53,0,0,0,.86,2.52,3.09,3.09,0,0,0,2.36.91,5.57,5.57,0,0,0,1.16-.1,5.82,5.82,0,0,0,1-.33v-.91a5.49,5.49,0,0,1-2.15.45,2.05,2.05,0,0,1-1.6-.61,2.66,2.66,0,0,1-.6-1.8h4.63V41.7a3.17,3.17,0,0,0-.73-2.19A2.53,2.53,0,0,0,281.69,38.67Zm-1.87,2.85a2.49,2.49,0,0,1,.57-1.47,1.66,1.66,0,0,1,1.29-.52,1.51,1.51,0,0,1,1.23.51,2.22,2.22,0,0,1,.43,1.48ZM288.08,39a3,3,0,0,0-.9,1h-.05L287,38.79h-.84v6.74h1V41.92a2.49,2.49,0,0,1,.58-1.66,1.81,1.81,0,0,1,1.4-.66,3.61,3.61,0,0,1,.74.09l.14-.94a4,4,0,0,0-.81-.08A2,2,0,0,0,288.08,39Zm-169.69-.36a2.65,2.65,0,0,0-2.15,1,3.88,3.88,0,0,0-.8,2.59,3.49,3.49,0,0,0,.86,2.52,3.07,3.07,0,0,0,2.35.91,5.6,5.6,0,0,0,1.17-.1,6,6,0,0,0,1-.33v-.91a5.46,5.46,0,0,1-2.15.45,2.07,2.07,0,0,1-1.6-.61,2.66,2.66,0,0,1-.6-1.8h4.64V41.7a3.13,3.13,0,0,0-.74-2.19A2.53,2.53,0,0,0,118.39,38.67Zm-1.87,2.85a2.37,2.37,0,0,1,.57-1.47,1.66,1.66,0,0,1,1.29-.52,1.53,1.53,0,0,1,1.23.51,2.27,2.27,0,0,1,.43,1.48ZM124.78,39a3,3,0,0,0-.9,1h0l-.12-1.25h-.84v6.74h1V41.92a2.44,2.44,0,0,1,.58-1.66,1.8,1.8,0,0,1,1.4-.66,3.45,3.45,0,0,1,.73.09l.15-.94a4,4,0,0,0-.81-.08A2,2,0,0,0,124.78,39Zm-72.95-.65v.38l-1.21.37v.46h1.21v5.94h1V39.59h1.71v-.8H52.85v-.43a2.15,2.15,0,0,1,.27-1.23,1,1,0,0,1,.86-.39,3.53,3.53,0,0,1,1,.19l.27-.81A4.28,4.28,0,0,0,54,35.9C52.55,35.9,51.83,36.73,51.83,38.38Zm5.93-1a.56.56,0,0,0,.17-.46.54.54,0,0,0-.17-.46.61.61,0,0,0-.4-.14.6.6,0,0,0-.39.14.57.57,0,0,0-.16.46.59.59,0,0,0,.16.46.56.56,0,0,0,.39.15A.57.57,0,0,0,57.76,37.43Zm2.57,4.9a2.88,2.88,0,0,1-.49,1.89,1.92,1.92,0,0,1-1.54.58,1.53,1.53,0,0,1-1.18-.41,1.76,1.76,0,0,1-.37-1.23V38.79h-1V43.2a2.48,2.48,0,0,0,.61,1.87,2.56,2.56,0,0,0,1.84.58,3.07,3.07,0,0,0,1.27-.26,2.08,2.08,0,0,0,.87-.76h0l.15.9h.84V38.79h-1ZM91.22,26.62v-2.7c-.83.26-1.62.46-2.39.63a11.62,11.62,0,0,1-2.37.24A5.3,5.3,0,0,1,82.12,23a8.27,8.27,0,0,1-1.5-5.37,8.19,8.19,0,0,1,1.56-5.31,5.19,5.19,0,0,1,4.28-1.93,7.45,7.45,0,0,1,2.28.35,15.91,15.91,0,0,1,2.07.81l1.13-2.63a12.23,12.23,0,0,0-5.46-1.24,9.64,9.64,0,0,0-4.89,1.21,7.9,7.9,0,0,0-3.19,3.45,12,12,0,0,0-1.1,5.27q0,4.77,2.27,7.34a8.21,8.21,0,0,0,6.5,2.56A14.3,14.3,0,0,0,91.22,26.62Zm37.51-2.08H121V18.49h7.26V15.85H121V10.6h7.75V7.93H117.82V27.22h10.91Zm60,0h-10l9.77-14.36V7.93H175.18v2.71h9.45L174.91,25v2.19h13.8Zm57.62,14.2,0,.47,0,.49h-.08a2.42,2.42,0,0,0-2.1-1,2.49,2.49,0,0,0-2.05.92,4.07,4.07,0,0,0-.74,2.59,4,4,0,0,0,.74,2.57,2.5,2.5,0,0,0,2.05.9,2.41,2.41,0,0,0,2.12-1h0l.14.9h.83V36h-1Zm0,3.69a2.89,2.89,0,0,1-.47,1.83,1.87,1.87,0,0,1-1.52.57,1.61,1.61,0,0,1-1.39-.66,3.38,3.38,0,0,1-.47-2,3.46,3.46,0,0,1,.48-2,1.55,1.55,0,0,1,1.37-.69,1.8,1.8,0,0,1,1.52.61,3.36,3.36,0,0,1,.48,2ZM76,41.76h2v2.76a7.4,7.4,0,0,1-1.83.22,3.43,3.43,0,0,1-2.6-.94A3.85,3.85,0,0,1,72.71,41a3.8,3.8,0,0,1,.92-2.71,3.35,3.35,0,0,1,2.56-1,5.88,5.88,0,0,1,2.34.52l.41-.92a6.64,6.64,0,0,0-2.68-.53,5.27,5.27,0,0,0-2.48.55,3.93,3.93,0,0,0-1.62,1.61A5.22,5.22,0,0,0,71.6,41a4.77,4.77,0,0,0,1.14,3.4,4.15,4.15,0,0,0,3.18,1.21,10.69,10.69,0,0,0,1.7-.12,9,9,0,0,0,1.45-.34V40.82H76ZM72.08,7.93H68.92V27.22h3.16ZM63.65,19.71A4.89,4.89,0,0,0,62.2,18a14.32,14.32,0,0,0-3.12-1.65,17.12,17.12,0,0,1-2.61-1.25,3.15,3.15,0,0,1-1-1,2.45,2.45,0,0,1-.32-1.28,2.18,2.18,0,0,1,.8-1.76,3.47,3.47,0,0,1,2.32-.67,12.1,12.1,0,0,1,4.59,1.08l1-2.57a13.53,13.53,0,0,0-5.51-1.22A7.16,7.16,0,0,0,53.7,9,4.62,4.62,0,0,0,52,12.84a5.19,5.19,0,0,0,1.08,3.3,8.94,8.94,0,0,0,3.72,2.44,12.23,12.23,0,0,1,3.38,1.78A2.4,2.4,0,0,1,61,22.19a2.33,2.33,0,0,1-.89,1.92,4.41,4.41,0,0,1-2.76.71,11.76,11.76,0,0,1-2.76-.36,15,15,0,0,1-2.81-1v3a12.38,12.38,0,0,0,5.36,1A8.13,8.13,0,0,0,62.25,26a4.86,4.86,0,0,0,1.86-4A5.17,5.17,0,0,0,63.65,19.71ZM65.42,39a3,3,0,0,0-.9,1h0l-.12-1.25h-.84v6.74h1V41.92a2.44,2.44,0,0,1,.58-1.66,1.8,1.8,0,0,1,1.4-.66,3.61,3.61,0,0,1,.74.09l.14-.94a4,4,0,0,0-.81-.08A2,2,0,0,0,65.42,39Zm-5.32-1.6a.59.59,0,0,0,.17-.46.57.57,0,0,0-.17-.46.63.63,0,0,0-.4-.14.6.6,0,0,0-.39.14.57.57,0,0,0-.16.46.59.59,0,0,0,.16.46.56.56,0,0,0,.39.15A.59.59,0,0,0,60.1,37.43Zm122,8.1h1V41.69h3.73v-.93h-3.73V37.47h4v-.92h-5Zm14-6.85a4.8,4.8,0,0,0-1.19.16,4.57,4.57,0,0,0-1.09.42l.31.78a4.48,4.48,0,0,1,1.91-.51,1.41,1.41,0,0,1,1.09.37,1.77,1.77,0,0,1,.34,1.17v.42l-1.15,0c-2.17.06-3.26.78-3.26,2.14a1.9,1.9,0,0,0,.57,1.47,2.26,2.26,0,0,0,1.57.51,3,3,0,0,0,1.25-.22,3,3,0,0,0,1-.86h0l.21,1h.75v-4.6a2.21,2.21,0,0,0-.58-1.71A2.53,2.53,0,0,0,196.12,38.68Zm1.34,4.15a2,2,0,0,1-.54,1.46,2.06,2.06,0,0,1-1.5.52,1.38,1.38,0,0,1-.93-.29,1,1,0,0,1-.34-.84,1.13,1.13,0,0,1,.54-1,3.63,3.63,0,0,1,1.75-.38l1,0Zm7.66-.5a2.94,2.94,0,0,1-.48,1.89,1.94,1.94,0,0,1-1.55.58,1.52,1.52,0,0,1-1.17-.41,1.76,1.76,0,0,1-.38-1.23V38.79h-1V43.2a2.48,2.48,0,0,0,.61,1.87,2.57,2.57,0,0,0,1.84.58,3,3,0,0,0,1.27-.26,2.08,2.08,0,0,0,.87-.76h.06l.14.9h.84V38.79h-1Zm55.38,3.2h1V38.79h-1ZM203.55,20.11c0,3.12-1.48,4.68-4.46,4.68a4.59,4.59,0,0,1-3.4-1.13,4.88,4.88,0,0,1-1.11-3.53V7.93h-3.16V20.36a6.86,6.86,0,0,0,2,5.22,7.75,7.75,0,0,0,5.58,1.9,9.31,9.31,0,0,0,4.15-.86,6.16,6.16,0,0,0,2.65-2.47,7.4,7.4,0,0,0,.91-3.74V7.93h-3.15Zm33.71,18.56A2.77,2.77,0,0,0,236,39a2.07,2.07,0,0,0-.88.77h-.05l-.16-.93h-.83v6.74h1V42a2.88,2.88,0,0,1,.49-1.89,1.94,1.94,0,0,1,1.55-.57,1.52,1.52,0,0,1,1.17.4,1.76,1.76,0,0,1,.38,1.23v4.36h1V41.14a2.5,2.5,0,0,0-.62-1.88A2.56,2.56,0,0,0,237.26,38.67Zm-63,0a2.65,2.65,0,0,0-2.15,1,3.88,3.88,0,0,0-.81,2.59,3.49,3.49,0,0,0,.87,2.52,3.07,3.07,0,0,0,2.35.91,5.6,5.6,0,0,0,1.17-.1,6,6,0,0,0,1-.33v-.91a5.46,5.46,0,0,1-2.15.45,2.07,2.07,0,0,1-1.6-.61,2.66,2.66,0,0,1-.6-1.8H177V41.7a3.17,3.17,0,0,0-.74-2.19A2.53,2.53,0,0,0,174.21,38.67Zm-1.87,2.85a2.42,2.42,0,0,1,.56-1.47,1.7,1.7,0,0,1,1.3-.52,1.53,1.53,0,0,1,1.23.51,2.27,2.27,0,0,1,.43,1.48Zm18-2.49a3,3,0,0,0-.9,1h-.05l-.12-1.25h-.84v6.74h1V41.92a2.44,2.44,0,0,1,.58-1.66,1.8,1.8,0,0,1,1.4-.66,3.61,3.61,0,0,1,.74.09l.14-.94a4,4,0,0,0-.81-.08A2,2,0,0,0,190.36,39Zm-52.11,6.5h1V38.79h-1Zm98-21h-8.17V7.93h-3.15V27.22h11.32ZM230.9,42.33a2.93,2.93,0,0,1-.49,1.89,1.94,1.94,0,0,1-1.55.58,1.52,1.52,0,0,1-1.17-.41,1.76,1.76,0,0,1-.38-1.23V38.79h-1V43.2a2.52,2.52,0,0,0,.61,1.87,2.57,2.57,0,0,0,1.84.58,3,3,0,0,0,1.27-.26,2.08,2.08,0,0,0,.87-.76h.06l.14.9h.85V38.79h-1Zm-20-3.66a2.68,2.68,0,0,0-2.16,1,3.93,3.93,0,0,0-.8,2.59,3.49,3.49,0,0,0,.87,2.52,3.07,3.07,0,0,0,2.35.91,5.67,5.67,0,0,0,1.17-.1,6,6,0,0,0,1-.33v-.91a5.49,5.49,0,0,1-2.15.45,2.07,2.07,0,0,1-1.6-.61,2.66,2.66,0,0,1-.6-1.8h4.64V41.7a3.17,3.17,0,0,0-.74-2.19A2.53,2.53,0,0,0,210.89,38.67ZM209,41.52a2.49,2.49,0,0,1,.57-1.47,1.67,1.67,0,0,1,1.3-.52,1.49,1.49,0,0,1,1.22.51,2.22,2.22,0,0,1,.43,1.48Zm57.36-14a14.3,14.3,0,0,0,5.15-.86v-2.7c-.83.26-1.62.46-2.39.63a11.55,11.55,0,0,1-2.37.24A5.32,5.32,0,0,1,262.42,23a8.27,8.27,0,0,1-1.49-5.37,8.19,8.19,0,0,1,1.55-5.31,5.2,5.2,0,0,1,4.28-1.93,7.56,7.56,0,0,1,2.29.35,16.34,16.34,0,0,1,2.06.81l1.13-2.63a12.23,12.23,0,0,0-5.46-1.24,9.64,9.64,0,0,0-4.89,1.21,7.9,7.9,0,0,0-3.19,3.45,12,12,0,0,0-1.1,5.27q0,4.77,2.27,7.34A8.21,8.21,0,0,0,266.37,27.48ZM218.55,38.67a2.77,2.77,0,0,0-1.26.28,2.07,2.07,0,0,0-.88.77h0l-.16-.93h-.83v6.74h1V42a2.88,2.88,0,0,1,.49-1.89,1.91,1.91,0,0,1,1.54-.57,1.53,1.53,0,0,1,1.18.4,1.76,1.76,0,0,1,.37,1.23v4.36h1V41.14a2.5,2.5,0,0,0-.61-1.88A2.56,2.56,0,0,0,218.55,38.67ZM211.1,27.22h3.12V19.3h7.27V16.63h-7.27v-6H222V7.93H211.1Zm64.83,11.49,0,.47,0,.49h-.08a2.44,2.44,0,0,0-2.1-1,2.48,2.48,0,0,0-2.05.92,4.07,4.07,0,0,0-.74,2.59,4,4,0,0,0,.73,2.57,2.52,2.52,0,0,0,2.06.9,2.39,2.39,0,0,0,2.11-1H276l.13.9H277V36h-1Zm0,3.69a2.83,2.83,0,0,1-.47,1.83,1.85,1.85,0,0,1-1.51.57,1.6,1.6,0,0,1-1.39-.66,3.3,3.3,0,0,1-.47-2,3.46,3.46,0,0,1,.47-2,1.58,1.58,0,0,1,1.38-.69,1.81,1.81,0,0,1,1.52.61,3.44,3.44,0,0,1,.47,2Zm-21.77-22V7.93H251V20.11q0,4.68-4.45,4.68a4.6,4.6,0,0,1-3.41-1.13A4.88,4.88,0,0,1,242,20.13V7.93h-3.16V20.36a6.86,6.86,0,0,0,2,5.22,7.75,7.75,0,0,0,5.58,1.9,9.31,9.31,0,0,0,4.15-.86,6.16,6.16,0,0,0,2.65-2.47A7.41,7.41,0,0,0,254.16,20.41ZM146.75,13.55A5,5,0,0,0,145,9.33q-1.8-1.39-5.53-1.4H134V27.22h3.15V19.51h3.12l4.62,7.71h3.58L143,18.68Q146.75,17.15,146.75,13.55Zm-7.43,3.35h-2.19V10.6h2.09a5.85,5.85,0,0,1,3.22.71,2.62,2.62,0,0,1,1.07,2.35,3,3,0,0,1-1,2.42A5,5,0,0,1,139.32,16.9ZM146,38.71l0,.47,0,.49h-.08a2.42,2.42,0,0,0-2.1-1,2.49,2.49,0,0,0-2.05.92,4.07,4.07,0,0,0-.74,2.59,4,4,0,0,0,.74,2.57,2.5,2.5,0,0,0,2.05.9,2.41,2.41,0,0,0,2.12-1h0l.14.9H147V36h-1Zm0,3.69a2.89,2.89,0,0,1-.47,1.83,1.87,1.87,0,0,1-1.52.57,1.61,1.61,0,0,1-1.39-.66,3.38,3.38,0,0,1-.47-2,3.46,3.46,0,0,1,.48-2,1.55,1.55,0,0,1,1.37-.69,1.8,1.8,0,0,1,1.52.61,3.36,3.36,0,0,1,.48,2Zm113.32-5.85h-1.23L254,41V36.55h-1v9h1V42l.94-.84,3.27,4.36h1.23l-3.75-5.08Zm-120.52-.26a.61.61,0,0,0-.43.17.85.85,0,0,0,0,1,.63.63,0,0,0,.86,0,.85.85,0,0,0,0-1A.61.61,0,0,0,138.76,36.29Zm122.26,0a.58.58,0,0,0-.43.17.81.81,0,0,0,0,1,.54.54,0,0,0,.43.17.57.57,0,0,0,.42-.17.81.81,0,0,0,0-1A.61.61,0,0,0,261,36.29Zm-92.57,2.42,0,.47,0,.49h-.08a2.42,2.42,0,0,0-2.1-1,2.49,2.49,0,0,0-2.05.92,4.07,4.07,0,0,0-.74,2.59,4,4,0,0,0,.74,2.57,2.5,2.5,0,0,0,2.05.9,2.41,2.41,0,0,0,2.12-1h.05l.14.9h.83V36h-1Zm0,3.69a2.89,2.89,0,0,1-.47,1.83,1.87,1.87,0,0,1-1.52.57,1.61,1.61,0,0,1-1.39-.66,3.38,3.38,0,0,1-.47-2,3.46,3.46,0,0,1,.48-2,1.55,1.55,0,0,1,1.37-.69,1.8,1.8,0,0,1,1.52.61,3.36,3.36,0,0,1,.48,2Zm98.42-3.73a2.72,2.72,0,0,0-1.26.28,2.07,2.07,0,0,0-.88.77h-.05l-.17-.93h-.83v6.74h1V42a2.93,2.93,0,0,1,.49-1.89,2,2,0,0,1,1.55-.57,1.55,1.55,0,0,1,1.18.4,1.81,1.81,0,0,1,.37,1.23v4.36h1V41.14a2.5,2.5,0,0,0-.61-1.88A2.56,2.56,0,0,0,266.87,38.67Zm-115.15,0a2.65,2.65,0,0,0-2.15,1,3.88,3.88,0,0,0-.81,2.59,3.49,3.49,0,0,0,.87,2.52,3.07,3.07,0,0,0,2.35.91,5.6,5.6,0,0,0,1.17-.1,6,6,0,0,0,1-.33v-.91a5.49,5.49,0,0,1-2.15.45,2.07,2.07,0,0,1-1.6-.61,2.66,2.66,0,0,1-.6-1.8h4.64V41.7a3.17,3.17,0,0,0-.74-2.19A2.53,2.53,0,0,0,151.72,38.67Zm-1.87,2.85a2.42,2.42,0,0,1,.56-1.47,1.7,1.7,0,0,1,1.3-.52,1.53,1.53,0,0,1,1.23.51,2.27,2.27,0,0,1,.43,1.48Zm2.48-14.3h10.91V24.54h-7.76V18.49h7.27V15.85h-7.27V10.6h7.76V7.93H152.33Zm7,11.45a2.77,2.77,0,0,0-1.26.28,2.07,2.07,0,0,0-.88.77h-.05l-.16-.93h-.83v6.74h1V42a2.88,2.88,0,0,1,.49-1.89,1.94,1.94,0,0,1,1.55-.57,1.52,1.52,0,0,1,1.17.4,1.76,1.76,0,0,1,.38,1.23v4.36h1V41.14a2.5,2.5,0,0,0-.62-1.88A2.56,2.56,0,0,0,159.38,38.67Z"/></svg>